<svg xmlns="http://www.w3.org/2000/svg" aria-hidden="true" style="position:absolute;width:0;height:0;overflow:hidden">
  <defs>
    <symbol id="icon-twitter" viewBox="0 0 32 32">
      <path stroke-linecap="round" stroke-linejoin="round" stroke-width="2.667" d="M30.667 4a14.542 14.542 0 0 1-4.187 2.04 5.975 5.975 0 0 0-6.637-1.661A5.981 5.981 0 0 0 16 10.04v1.333c-2.343.061-4.665-.459-6.759-1.513S4.68 6.297 3.333 4.379c0 0-4.667 12.954 7.333 18.287a15.519 15.519 0 0 1-9.333 2.667C13.333 32 28 25.333 28 10a5.966 5.966 0 0 0-.107-1.107A10.288 10.288 0 0 0 30.666 4z"/>
    </symbol>
    <symbol id="icon-instagram" viewBox="0 0 32 32">
      <path stroke-linecap="round" stroke-linejoin="round" stroke-width="2.667" d="M22.667 2.667H9.334a6.667 6.667 0 0 0-6.667 6.667v13.333a6.667 6.667 0 0 0 6.667 6.667h13.333a6.667 6.667 0 0 0 6.667-6.667V9.334a6.667 6.667 0 0 0-6.667-6.667z"/>
      <path stroke-linecap="round" stroke-linejoin="round" stroke-width="2.667" d="M21.333 15.16a5.329 5.329 0 0 1-2.878 5.546 5.337 5.337 0 0 1-6.169-.992 5.33 5.33 0 0 1 1.316-8.505 5.336 5.336 0 0 1 6.228.962 5.328 5.328 0 0 1 1.504 2.989zM23.333 8.667h.013"/>
    </symbol>
  <symbol id="icon-close-icon" viewBox="0 0 32 32">
<path d="M7.533 6.756c-0.305 0.108-0.675 0.485-0.781 0.799-0.051 0.134-0.081 0.288-0.081 0.45 0 0.163 0.030 0.319 0.085 0.462l-0.003-0.009c0.080 0.239 0.42 0.596 3.719 3.903l3.632 3.64-3.632 3.64c-3.299 3.307-3.639 3.664-3.719 3.903-0.046 0.135-0.077 0.291-0.086 0.452l-0 0.005c0 0.54 0.412 1.101 0.92 1.252 0.344 0.103 0.483 0.103 0.844-0.004 0.28-0.081 0.407-0.201 3.929-3.719l3.64-3.633 3.64 3.633c3.523 3.517 3.649 3.637 3.929 3.719 0.361 0.107 0.5 0.107 0.844 0.004 0.372-0.111 0.728-0.467 0.839-0.839 0.103-0.344 0.103-0.483-0.004-0.844-0.081-0.28-0.201-0.407-3.719-3.929l-3.633-3.64 3.633-3.64c3.517-3.523 3.637-3.649 3.719-3.929 0.107-0.361 0.107-0.5 0.004-0.844-0.151-0.508-0.712-0.92-1.252-0.92-0.107 0-0.312 0.039-0.457 0.087-0.239 0.080-0.596 0.42-3.903 3.719l-3.64 3.632-3.64-3.632c-3.307-3.299-3.664-3.639-3.903-3.719-0.136-0.050-0.294-0.079-0.458-0.079-0.167 0-0.327 0.030-0.475 0.084l0.010-0.003z"></path>
</symbol>
<symbol id="icon-mail" viewBox="0 0 32 32">
<path d="M4.454 4.026c-0.815 0.183-1.34 0.48-1.978 1.116-0.725 0.725-1.075 1.442-1.176 2.404-0.024 0.235-0.034 4.218-0.019 8.855l0.026 8.425 0.145 0.427c0.216 0.632 0.491 1.062 1.028 1.604 0.531 0.533 0.952 0.802 1.619 1.030l0.408 0.139h22.987l0.425-0.145c0.636-0.216 1.064-0.491 1.6-1.028 0.538-0.538 0.813-0.964 1.030-1.6l0.145-0.427 0.026-8.425c0.015-4.636 0.008-8.608-0.013-8.828-0.055-0.531-0.258-1.173-0.504-1.6-0.113-0.19-0.418-0.563-0.683-0.83-0.529-0.533-0.951-0.802-1.617-1.030l-0.408-0.139-11.36-0.009c-9.357-0.008-11.416 0.004-11.68 0.062zM27.211 6.871c0.233 0.115 0.521 0.384 0.521 0.488 0 0.058-11.652 8.215-11.733 8.215-0.055 0-11.499-7.976-11.672-8.134-0.158-0.147 0.241-0.527 0.676-0.646 0.198-0.053 2.488-0.064 11.104-0.056l10.852 0.009 0.252 0.124zM9.702 14.643c3.081 2.155 5.702 3.957 5.824 4 0.282 0.098 0.666 0.098 0.949 0 0.122-0.043 2.743-1.845 5.824-4 3.081-2.157 5.613-3.923 5.626-3.923s0.017 3.055 0.009 6.788l-0.015 6.788-0.136 0.265c-0.169 0.331-0.497 0.585-0.851 0.661-0.382 0.083-21.483 0.083-21.865 0-0.354-0.075-0.681-0.329-0.851-0.661l-0.137-0.265-0.013-6.788c-0.008-3.733-0.004-6.788 0.009-6.788s2.545 1.766 5.626 3.923z"></path>
</symbol>
<symbol id="icon-phone" viewBox="0 0 32 32">
<path d="M4.712 1.335c-0.369 0.073-0.969 0.301-1.289 0.488-0.166 0.098-0.533 0.407-0.815 0.687-0.429 0.425-0.55 0.585-0.734 0.964-0.548 1.133-0.565 2.089-0.083 4.634 1.015 5.348 3.772 10.52 7.704 14.451 3.541 3.541 8.111 6.15 12.879 7.354 1.655 0.418 3.471 0.713 4.346 0.71 1.745-0.008 3.224-1.097 3.821-2.808l0.149-0.427 0.019-2.692c0.019-3.027 0.009-3.134-0.358-3.921-0.457-0.979-1.363-1.79-2.377-2.133-0.147-0.049-0.663-0.158-1.146-0.243-1.047-0.183-1.67-0.339-2.75-0.691-0.44-0.145-0.981-0.29-1.199-0.324-0.928-0.145-2.116 0.16-2.92 0.745-0.124 0.092-0.489 0.42-0.809 0.728-0.523 0.506-0.593 0.557-0.695 0.503-0.060-0.032-0.393-0.26-0.736-0.504-1.76-1.252-3.352-2.848-4.614-4.625-0.61-0.86-0.617-0.7 0.064-1.408 0.67-0.698 0.851-0.941 1.097-1.48 0.329-0.723 0.459-1.547 0.348-2.225-0.036-0.218-0.181-0.759-0.324-1.199-0.352-1.086-0.508-1.709-0.689-2.746-0.171-0.983-0.25-1.256-0.514-1.76-0.508-0.975-1.504-1.749-2.603-2.025-0.393-0.1-0.589-0.107-2.987-0.102-1.41 0.004-2.664 0.026-2.786 0.049zM9.76 4.111c0.329 0.072 0.68 0.326 0.836 0.612 0.073 0.132 0.168 0.51 0.254 1.011 0.177 1.020 0.448 2.093 0.751 2.974 0.422 1.225 0.412 1.252-0.934 2.626-0.597 0.608-1.090 1.158-1.15 1.28-0.072 0.152-0.102 0.328-0.104 0.614 0 0.386 0.009 0.418 0.286 0.907 1.367 2.406 3.576 4.892 5.958 6.701 0.591 0.448 1.609 1.124 2.208 1.464 0.489 0.277 0.521 0.286 0.907 0.286 0.286-0.002 0.461-0.032 0.614-0.104 0.122-0.060 0.672-0.553 1.28-1.15 1.378-1.35 1.38-1.35 2.633-0.928 0.93 0.312 1.958 0.57 2.963 0.745 0.84 0.145 1.088 0.237 1.318 0.486 0.35 0.376 0.339 0.292 0.339 2.844 0 2.11-0.008 2.342-0.096 2.569-0.117 0.303-0.41 0.582-0.751 0.712-0.243 0.092-0.282 0.092-0.983 0.004-3.475-0.442-6.793-1.604-9.743-3.409-1.975-1.208-3.264-2.204-4.738-3.656-3.573-3.518-6.123-8.25-7.044-13.065-0.203-1.071-0.363-2.302-0.324-2.511 0.102-0.544 0.469-0.9 1.065-1.033 0.241-0.055 4.19-0.036 4.454 0.021z"></path>
</symbol>
<symbol id="icon-user" viewBox="0 0 32 32">
<path d="M15.147 2.645c-1.321 0.235-2.287 0.634-3.204 1.323-1.257 0.945-2.106 2.257-2.507 3.872-0.111 0.44-0.126 0.634-0.126 1.493 0 0.86 0.015 1.052 0.126 1.495 0.646 2.594 2.475 4.425 5.071 5.071 0.44 0.109 0.634 0.126 1.493 0.126s1.052-0.017 1.493-0.126c2.596-0.646 4.425-2.477 5.071-5.071 0.111-0.442 0.126-0.634 0.126-1.495 0-0.858-0.015-1.052-0.126-1.493-0.561-2.257-2.063-3.983-4.173-4.802-0.706-0.273-1.312-0.38-2.231-0.399-0.13-0.005-0.283-0.008-0.437-0.008-0.203 0-0.404 0.005-0.604 0.014l0.028-0.001zM17.062 5.553c1.25 0.318 2.394 1.468 2.729 2.744 0.152 0.585 0.152 1.487 0 2.072-0.339 1.286-1.468 2.417-2.756 2.754-0.311 0.074-0.668 0.116-1.035 0.116s-0.724-0.042-1.067-0.122l0.032 0.006c-1.001-0.264-1.912-1-2.453-1.982-0.567-1.033-0.567-2.583 0-3.618 0.92-1.675 2.692-2.443 4.55-1.971zM9.813 18.648c-0.575 0.102-1.072 0.231-1.553 0.393l0.076-0.022c-2.136 0.806-3.659 2.539-4.233 4.821-0.124 0.491-0.128 0.572-0.128 2.56 0 2.283-0.013 2.197 0.375 2.584 0.311 0.312 0.476 0.375 0.984 0.375s0.674-0.062 0.986-0.375c0.378-0.378 0.371-0.331 0.407-2.398 0.030-1.675 0.045-1.909 0.147-2.289 0.36-1.329 1.536-2.473 2.867-2.786 0.395-0.092 0.768-0.098 6.261-0.098s5.865 0.006 6.261 0.098c1.331 0.312 2.509 1.457 2.865 2.786 0.102 0.378 0.119 0.619 0.149 2.289 0.038 2.067 0.030 2.020 0.407 2.398 0.312 0.312 0.478 0.375 0.986 0.375s0.674-0.062 0.984-0.375c0.388-0.388 0.375-0.301 0.375-2.584 0-1.988-0.004-2.069-0.128-2.56-0.331-1.32-0.905-2.347-1.815-3.255-0.907-0.904-1.869-1.448-3.177-1.8l-0.533-0.143-6.214-0.008c-3.416-0.006-6.274 0-6.347 0.013z"></path>
</symbol>
<symbol id="icon-check-icon" viewBox="0 0 32 32">
<path d="M12.636 31.213c1.395 0 2.449-0.536 3.163-1.607l15.448-23.28c0.257-0.379 0.446-0.753 0.569-1.121 0.123-0.379 0.184-0.742 0.184-1.088 0-0.96-0.335-1.752-1.004-2.377-0.658-0.636-1.473-0.954-2.444-0.954-0.669 0-1.238 0.134-1.707 0.402-0.457 0.257-0.893 0.703-1.305 1.339l-12.971 20.368-6.494-7.782c-0.703-0.815-1.584-1.222-2.644-1.222-0.993 0-1.813 0.318-2.46 0.954s-0.971 1.434-0.971 2.393c0 0.435 0.067 0.848 0.201 1.238 0.145 0.379 0.407 0.775 0.787 1.188l8.619 10.159c0.792 0.926 1.802 1.389 3.029 1.389z"></path>
</symbol>
<symbol id="icon-choco" viewBox="0 0 32 32">
<path d="M3.944 20.076l10.777-17.424 0.64-0.674 8.236 5.491 0.056 3.314 2.010 3.28-8.88 14.077-12.839-8.063z"></path>
<path stroke-linejoin="round" stroke-linecap="round" stroke-miterlimit="4" stroke-width="2.6667" d="M21.635 23.88l-14.185-8.864M11.361 8.599l14.186 8.864M10.63 25.864l11.736-19.25M27.176 14.789c-3.040-1.899-4.234-3.384-2.278-6.592l-9.626-6.015-11.736 19.25 14.185 8.864 9.454-15.507z"></path>
</symbol>
<symbol id="icon-chocolate" viewBox="0 0 32 32">
<path fill="#fcf1e0" style="fill: var(--color1, #fcf1e0)" d="M3.944 20.076l10.777-17.424 0.64-0.674 8.236 5.491 0.056 3.314 2.010 3.28-8.88 14.077-12.839-8.063z"></path>
<path fill="none" stroke="#fd9222" style="stroke: var(--color2, #fd9222)" stroke-linejoin="round" stroke-linecap="round" stroke-miterlimit="4" stroke-width="2.6667" d="M21.635 23.88l-14.185-8.864M11.361 8.599l14.186 8.864M10.63 25.864l11.736-19.25M27.176 14.789c-3.040-1.899-4.234-3.384-2.278-6.592l-9.626-6.015-11.736 19.25 14.185 8.864 9.454-15.507z"></path>
</symbol>
<symbol id="icon-Vector-2-1" viewBox="0 0 56 32">
<path d="M30.6 21.136c-0.664 0.668-1.584 1.081-2.6 1.081s-1.936-0.413-2.6-1.081l-0-0-16.8-16.832c-0.672-0.725-1.629-1.177-2.692-1.177-2.026 0-3.668 1.642-3.668 3.668 0 1.055 0.445 2.006 1.158 2.675l0.002 0.002 16.828 16.832c1.99 1.987 4.738 3.216 7.772 3.216s5.782-1.229 7.772-3.216l16.832-16.828c0.659-0.663 1.066-1.577 1.066-2.586 0-2.027-1.643-3.67-3.67-3.67-1.018 0-1.939 0.414-2.604 1.084l-0 0-16.792 16.828z"></path>
</symbol>
<symbol id="icon-chocolate-bar" viewBox="0 0 32 32">
<path fill="#000" style="fill: var(--color1, #000)" d="M13.822 2.413l7.527 7.536 0.080-0.080c0.154-0.151 0.366-0.244 0.599-0.244 0.227 0 0.433 0.088 0.586 0.232l-0-0 0.873 0.873c0.305 0.305 0.315 0.77 0.083 1.094l-0.004 0.007-0.143 0.192 6.16 6.16c0.55 0.55 0.55 1.43 0 1.98l-9.43 9.43c-0.55 0.55-1.43 0.55-1.98 0l-4.447-4.447c-0.155 0.195-0.393 0.319-0.659 0.319-0.233 0-0.444-0.095-0.596-0.248l-2.6-2.6c-0.151-0.154-0.244-0.366-0.244-0.599 0-0.227 0.088-0.433 0.232-0.586l-0 0 0.006-0.007 0.077-0.076-7.527-7.527c-0.55-0.55-0.55-1.43 0-1.98l9.43-9.43c0.55-0.55 1.43-0.55 1.98 0v0.001zM20.404 10.893l-1.756-1.755c-0.108-0.111-0.258-0.18-0.425-0.18s-0.317 0.069-0.425 0.18l-3.58 3.58c-0.111 0.11-0.179 0.262-0.179 0.43s0.068 0.32 0.179 0.43l1.749 1.749 0.61-0.61-1.565-1.565 3.21-3.22 1.569 1.574 0.613-0.613zM15.328 15.965l-1.754-1.754c-0.108-0.111-0.258-0.18-0.425-0.18s-0.317 0.069-0.425 0.18l-3.59 3.59c-0.24 0.23-0.24 0.61 0 0.85l1.752 1.752 0.616-0.616-1.57-1.564 3.22-3.21 1.564 1.563 0.612-0.611zM8.822 8.193l3.58 3.58c0.24 0.24 0.62 0.24 0.85-0.010l3.58-3.58c0.111-0.106 0.18-0.255 0.18-0.42 0-0 0-0 0-0v0h0.010c0-0.15-0.060-0.31-0.18-0.43l-3.58-3.58c-0.11-0.111-0.262-0.18-0.43-0.18s-0.32 0.069-0.43 0.18l-0 0-3.58 3.59c-0.24 0.23-0.24 0.61 0 0.85zM3.752 13.263l3.58 3.58c0.24 0.24 0.62 0.24 0.85 0l3.58-3.58c0.111-0.106 0.18-0.255 0.18-0.42 0-0.004-0-0.007-0-0.010v0.001h0.010c0-0.16-0.060-0.31-0.18-0.43l-3.58-3.58c-0.108-0.111-0.258-0.18-0.425-0.18s-0.317 0.069-0.425 0.18l-3.59 3.59c-0.24 0.23-0.24 0.61 0 0.85zM10.685 22.017l2.362 2.363 9.636-13.040-0.655-0.655-11.343 11.332z"></path>
<path fill="#fd9222" style="fill: var(--color2, #fd9222)" d="M13.822 2.413l7.527 7.536 0.080-0.080c0.154-0.151 0.366-0.244 0.599-0.244 0.227 0 0.433 0.088 0.586 0.232l-0-0 0.873 0.873c0.305 0.305 0.315 0.77 0.083 1.094l-0.004 0.007-0.143 0.192 6.16 6.16c0.55 0.55 0.55 1.43 0 1.98l-9.43 9.43c-0.55 0.55-1.43 0.55-1.98 0l-4.447-4.447c-0.155 0.195-0.393 0.319-0.659 0.319-0.233 0-0.444-0.095-0.596-0.248l-2.6-2.6c-0.151-0.154-0.244-0.366-0.244-0.599 0-0.227 0.088-0.433 0.232-0.586l-0 0 0.006-0.007 0.077-0.076-7.527-7.527c-0.55-0.55-0.55-1.43 0-1.98l9.43-9.43c0.55-0.55 1.43-0.55 1.98 0v0.001zM20.404 10.893l-1.756-1.755c-0.108-0.111-0.258-0.18-0.425-0.18s-0.317 0.069-0.425 0.18l-3.58 3.58c-0.111 0.11-0.179 0.262-0.179 0.43s0.068 0.32 0.179 0.43l1.749 1.749 0.61-0.61-1.565-1.565 3.21-3.22 1.569 1.574 0.613-0.613zM15.328 15.965l-1.754-1.754c-0.108-0.111-0.258-0.18-0.425-0.18s-0.317 0.069-0.425 0.18l-3.59 3.59c-0.24 0.23-0.24 0.61 0 0.85l1.752 1.752 0.616-0.616-1.57-1.564 3.22-3.21 1.564 1.563 0.612-0.611zM8.822 8.193l3.58 3.58c0.24 0.24 0.62 0.24 0.85-0.010l3.58-3.58c0.111-0.106 0.18-0.255 0.18-0.42 0-0 0-0 0-0v0h0.010c0-0.15-0.060-0.31-0.18-0.43l-3.58-3.58c-0.11-0.111-0.262-0.18-0.43-0.18s-0.32 0.069-0.43 0.18l-0 0-3.58 3.59c-0.24 0.23-0.24 0.61 0 0.85zM3.752 13.263l3.58 3.58c0.24 0.24 0.62 0.24 0.85 0l3.58-3.58c0.111-0.106 0.18-0.255 0.18-0.42 0-0.004-0-0.007-0-0.010v0.001h0.010c0-0.16-0.060-0.31-0.18-0.43l-3.58-3.58c-0.108-0.111-0.258-0.18-0.425-0.18s-0.317 0.069-0.425 0.18l-3.59 3.59c-0.24 0.23-0.24 0.61 0 0.85zM10.685 22.017l2.362 2.363 9.636-13.040-0.655-0.655-11.343 11.332z"></path>
</symbol>
<symbol id="icon-Coin" viewBox="0 0 32 32">
<path fill="#fd9222" style="fill: var(--color2, #fd9222)" d="M16 2.667c-7.333 0-13.333 6-13.333 13.333s6 13.333 13.333 13.333 13.333-6 13.333-13.333-6-13.333-13.333-13.333zM16 26.667c-5.867 0-10.667-4.8-10.667-10.667s4.8-10.667 10.667-10.667 10.667 4.8 10.667 10.667-4.8 10.667-10.667 10.667z"></path>
<path fill="#fd9222" style="fill: var(--color2, #fd9222)" d="M17.733 14.667h-3.466c-0.667 0-1.2-0.534-1.2-1.2 0-0.667 0.533-1.2 1.2-1.2h4.933c0.8 0 1.334-0.534 1.334-1.334s-0.534-1.333-1.334-1.333h-1.866v-1.2c0-0.8-0.534-1.333-1.334-1.333s-1.333 0.533-1.333 1.333v1.2h-0.4c-2.135 0.002-3.865 1.732-3.867 3.867v0c0.002 2.135 1.732 3.864 3.867 3.866h3.333c0.667 0 1.2 0.534 1.2 1.2 0 0.667-0.533 1.2-1.2 1.2h-4.933c-0.8 0-1.333 0.534-1.333 1.334s0.533 1.333 1.333 1.333h2v1.2c0 0.8 0.533 1.333 1.333 1.333s1.334-0.533 1.334-1.333v-1.2h0.4c2.135-0.002 3.864-1.732 3.866-3.867v-0c-0.002-2.135-1.732-3.864-3.867-3.866h-0z"></path>
</symbol>
<symbol id="icon-spoon" viewBox="0 0 32 32">
<path fill="#fd9222" style="fill: var(--color2, #fd9222)" d="M15.452 14.106c-0.733-0.884-1.177-2.030-1.177-3.279 0-0.001 0-0.002 0-0.003v0c0-4.324 5.181-8.642 10.362-8.642 2.861 0.001 5.18 2.321 5.181 5.182v0c0 5.182-4.317 10.364-8.646 10.364-0.001 0-0.002 0-0.003 0-1.249 0-2.395-0.444-3.287-1.184l0.009 0.007-12.758 12.761c-0.308 0.287-0.723 0.463-1.178 0.463-0.955 0-1.73-0.775-1.73-1.73 0-0.456 0.176-0.87 0.464-1.179l-0.001 0.001 12.764-12.761z"></path>
</symbol>
<symbol id="icon-Icon-mob" viewBox="0 0 32 32">
<path fill="none" stroke="#fff" style="stroke: var(--color1, #fff)" stroke-linejoin="round" stroke-linecap="round" stroke-miterlimit="4" stroke-width="4.5714" d="M29.333 2.667l-26.665 26.665M2.667 2.667l26.665 26.665"></path>
</symbol>
<symbol id="icon-menu-open-burger" viewBox="0 0 32 32">
<path d="M3.462 7.005c-0.156 0.092-0.288 0.209-0.393 0.348l-0.002 0.003c-0.144 0.206-0.16 0.266-0.16 0.645s0.016 0.439 0.16 0.645c0.088 0.125 0.266 0.283 0.397 0.352l0.235 0.125 24.71-0.027 0.197-0.134c0.109-0.073 0.263-0.227 0.343-0.342 0.128-0.184 0.146-0.258 0.146-0.623 0-0.373-0.016-0.435-0.16-0.64-0.108-0.141-0.239-0.259-0.389-0.347l-0.006-0.003-0.235-0.125h-24.606l-0.235 0.125zM3.462 15.005c-0.156 0.092-0.288 0.209-0.393 0.348l-0.002 0.003c-0.144 0.206-0.16 0.266-0.16 0.645s0.016 0.439 0.16 0.645c0.088 0.125 0.266 0.283 0.397 0.352l0.235 0.125 24.71-0.027 0.197-0.134c0.109-0.073 0.263-0.227 0.343-0.342 0.128-0.184 0.146-0.258 0.146-0.623 0-0.373-0.016-0.435-0.16-0.64-0.108-0.142-0.239-0.259-0.389-0.347l-0.006-0.003-0.235-0.125h-24.606l-0.235 0.125zM3.462 23.005c-0.156 0.092-0.288 0.209-0.393 0.348l-0.002 0.003c-0.144 0.206-0.16 0.266-0.16 0.645s0.016 0.439 0.16 0.645c0.088 0.125 0.266 0.283 0.397 0.352l0.235 0.125 24.71-0.027 0.197-0.134c0.109-0.073 0.263-0.227 0.343-0.342 0.128-0.184 0.146-0.258 0.146-0.623 0-0.373-0.016-0.435-0.16-0.64-0.108-0.142-0.239-0.259-0.389-0.347l-0.006-0.003-0.235-0.125h-24.606l-0.235 0.125z"></path>
</symbol>
  </defs>
</svg>
